<svg xmlns="http://www.w3.org/2000/svg" width="542.4" height="332.3" viewBox="31.3 232.6 542.4 332.3"><path fill="#FFF" d="M133.5 423.2v33.7c0 31.7-21.7 50.4-51.1 50.4-29.3 0-51.1-18.7-51.1-50.4v-174c0-31.7 21.7-50.4 51.1-50.4s51.1 18.7 51.1 50.4v25.9h-32v-25.9c0-12.6-7.6-20.6-19.1-20.6s-19.1 8-19.1 20.6v173.9c0 12.6 7.6 20.6 19.1 20.6s19.1-8 19.1-20.6v-33.7h32v.1zM162 250.2h31.3v210.5c0 9.5 3.4 15.6 11 15.6h19.1v25.6s-9.2 3.4-19.1 3.4c-27.1 0-42.3-16.4-42.3-44.6V250.2z"/><path fill="#E2231A" d="M186.4 323.3c0 .1 33.1-1.3 63.7 3.6l.1-.1c-30.7-4.8-63.8-3.5-63.8-3.5M182.5 308.6c3.5 1.5 3.9 6.4 3.9 8.1 0-1.6-.3-6.6-3.9-8.1-39.7-16.5-81.1-6.4-81.1-6.4v.1s41.4-10.1 81.1 6.3"/><path fill="#6E6F72" d="M193.2 339.9h-31.3v32.4l-.1 1.2c.4 1.2 2.7 2.4 5.3 2.8 3.2.5 15 .2 20.8.2h5.3v-36.6z"/><path fill="#EA272A" d="M182.5 308.6c3.5 1.5 3.9 6.4 3.9 8.2V323.2s33.1-1.4 63.7 3.6l17.5-15.7c-33.8-9.2-81.3-7.3-81.3-7.3v-5.9s.4-7-3.9-8.9c-39.7-16.5-81.1-6.4-81.1-6.4V302c.1.3 41.5-9.8 81.2 6.6"/><path fill="#AF2025" d="M175.9 354.6c3.4-1.4 7.3-2 8.4-3.4 1.1-1.2-.1-2.5-1.1-3.3l-.6-.5c-1.4-.9-3-1.4-4.6-1.9-2-.6-4-1.4-6-2-.7-.2-1.5-.4-2.2-.6v15.4c.6-1.4 2.6-2.3 6.1-3.7"/><path fill="#FFF" d="M182.5 328.1c4.4 1.8 3.9 8.9 3.9 8.9v5.9s34.1-1.4 65 3.8l-9.1-12.6 7.8-7c-30.6-4.9-63.7-3.5-63.7-3.5V317.6v-.6c0-1.8-.4-6.7-3.9-8.1-39.7-16.5-81.1-6.4-81.1-6.4V322c0-.3 41.4-10.4 81.1 6.1"/><path fill="#EA272A" d="M186.4 342.8v-5.9s.4-7-3.9-8.9c-39.7-16.5-81.1-6.3-81.1-6.3v19.5c1.9-.4 3.5-.7 5.4-1 5.1-.8 10.3-1.3 15.5-1.6 7.1-.5 14.3-.6 21.5-.2 8.1.4 13.3 1.4 21.2 3.2 1.1.2 2.1.5 3.2.8.5.1.9.3 1.4.4l.4.1c.6.2 1.2.4 1.8.5 2 .6 4 1.4 6 2 1.6.5 3.2 1.1 4.6 1.9l.6.5c1 .8 2.2 2.1 1.1 3.3-1.2 1.4-5 2-8.4 3.4-3.4 1.4-5.6 2.2-6.1 3.6-.6 1.4 2 3.1 5.2 3.7 3.2.5 15 .2 20.8.2 4.7 0 9.3.1 13.9.2 5.9.2 11.8.5 17.7.9 6.5.5 12.9 1.2 19.4 2.1s12.8 2.1 19.1 3.7c.8.2 1.5.4 2.2.6l-16.6-23c-30.9-5.1-64.9-3.7-64.9-3.7"/><g fill="#FFF"><path d="M266.7 482.5c5.7 0 10.2 4.1 10.2 10.2s-4.5 10.2-10.2 10.2-10.2-4.1-10.2-10.2 4.5-10.2 10.2-10.2zM371.2 530.5c0 21.3-15.3 34.4-35.4 34.4-21.7 0-35.4-12.8-35.4-34.4 0-10.8 6.7-19.4 6.7-19.4l13.7 6s-4.8 7-4.8 13.3c0 12.8 8.6 19.7 19.7 19.7 11.5 0 19.4-7.3 19.4-19.7v-35.7c-4.4 6-11.8 9.6-19.7 9.6-19.4 0-35.7-13.1-35.7-34.7V364c0-21.7 16.2-34.7 35.7-34.7 19.7 0 35.7 13.1 35.7 34.7l.1 166.5zm-55.5-60.8c0 12.4 8.9 20.1 19.7 20.1 11.2 0 19.7-7.6 19.7-20.1V364c0-12.4-8.6-20.1-19.7-20.1-10.8 0-19.7 7.6-19.7 20.1v105.7zM472.4 469.7c0 21.7-15.9 34.7-35.7 34.7S401 491.3 401 469.7V364c0-21.7 15.9-34.7 35.7-34.7s35.7 13.1 35.7 34.7v105.7zM456.5 364c0-12.4-8.6-20.1-19.7-20.1s-19.7 7.6-19.7 20.1v105.7c0 12.4 8.6 20.1 19.7 20.1s19.7-7.6 19.7-20.1V364zM573.7 449.1c0 20.4-22 55.4-35.7 55.4-14 0-35.7-35-35.7-55.4V332.5h15.9v116.6c0 13.7 13.7 37.6 19.7 37.6 5.7 0 19.7-23.9 19.7-37.6v-86.3c0-11.5-2.9-15.6-11.5-15.6v-14.6c22-1.9 27.4 8.6 27.4 30.2v86.3z"/></g></svg>